<svg width="300" height="120" viewBox="0 0 300 120" xmlns="http://www.w3.org/2000/svg"><path d="M100 40 C105 30, 115 30, 120 40 C125 50, 120 70, 110 80 C100 70, 95 50, 100 40 Z" fill="#FF6347"/><path d="M110 40 L110 30" stroke="#FF6347" stroke-width="2"/><path d="M90 60 L130 60" stroke="#FF6347" stroke-width="1.5" stroke-dasharray="2,2"/><path d="M90 60 L70 60" stroke="#FF6347" stroke-width="1.5"/><path d="M130 60 L150 60" stroke="#FF6347" stroke-width="1.5"/><path d="M150 60 L170 60" stroke="#FF6347" stroke-width="1.5" stroke-dasharray="2,2"/><path d="M170 60 L190 60" stroke="#FF6347" stroke-width="1.5"/><path d="M190 60 L210 60" stroke="#FF6347" stroke-width="1.5" stroke-dasharray="2,2"/><path d="M210 60 L230 60" stroke="#FF6347" stroke-width="1.5"/><circle cx="70" cy="60" r="3" fill="#FF6347"/><circle cx="150" cy="60" r="3" fill="#FF6347"/><circle cx="190" cy="60" r="3" fill="#FF6347"/><circle cx="230" cy="60" r="3" fill="#FF6347"/><text x="150" y="90" font-family="Impact, sans-serif" font-size="20" fill="#FF6347" text-anchor="middle">SPICE ROUTE</text></svg>